<svg width="207" height="207" viewBox="0 0 207 207" fill="none" xmlns="http://www.w3.org/2000/svg">
<g clip-path="url(#clip0_64_49)">
<path d="M80.5 126.5L81.5 126H83L86.5 124.5L93 120L97.5 114V110.5L95 108.5L90 105L86.5 98.5L83.5 95L77.5 93.5L75 89V80.5L69 63.5L66 42.5L69 33L75.5 30L112 33L142 47L143 50.5L145 55.5L145.5 59L148 69.5L149 81.5L150 91L149 97L147.5 103L142.5 110.5L137.5 113.5L130.5 117L128 119L134 127L137.5 128.5L136 134L129 142L122.5 145.5L115.5 148L106.5 147L95 142.5L85 134L80.5 126.5Z" fill="white"/>
<path d="M161.5 202.5L167 202L173.5 200.5L174.5 207H161L161.5 202.5Z" fill="white"/>
<path d="M25 207H55L42 204L27 197.5L25 207Z" fill="white"/>
<path fill-rule="evenodd" clip-rule="evenodd" d="M177.637 226.934C176.785 222.123 176.005 217.299 175.295 212.465C174.959 210.17 174.63 207.872 174.335 205.571C174.128 203.959 173.813 202.115 174.909 200.921C176.452 199.241 177.854 197.802 178.043 195.395C178.22 193.13 177.455 190.66 176.976 188.462C175.972 183.851 174.722 179.297 173.341 174.787C171.938 170.204 170.4 165.664 168.839 161.133C167.38 156.897 165.977 152.623 164.077 148.558C160.47 140.845 154.369 135.133 146.828 131.319C144.953 130.37 141.128 126.984 139.169 126.226C137.367 125.529 137.374 127.564 135.601 126.797C134.184 126.184 132.864 125.367 132.071 123.998C131.209 122.512 129.049 120.433 128.72 118.703C128.023 115.036 128.778 111.914 126.161 109.154C123.839 106.703 120.717 105.024 117.487 104.123C110.38 102.14 100.903 103.526 96.6158 110.132C94.568 113.287 93.8525 117.1 91.0893 119.674C88.6764 121.922 89.2164 123.459 86.0913 124.618C85.9143 124.683 81.1169 123.654 80.9399 123.72C77.5211 122.988 74.2536 125.037 71.1171 126.226C66.4411 127.998 61.9893 130.304 57.8068 133.046C49.3732 138.574 42.15 145.752 36.195 153.875C30.1908 162.064 25.5321 171.244 22.215 180.838C21.4094 183.168 20.6858 185.527 20.0476 187.909C19.6903 189.241 19.3086 190.624 19.7436 191.989C20.0994 193.105 20.8908 193.936 21.8201 194.606C23.0799 195.514 25.6069 196.105 25.5577 197.931C25.5201 199.32 25.0491 200.781 24.8193 202.153C24.5457 203.788 24.3209 205.431 24.0961 207.073C23.0736 214.544 22.2777 222.057 21.9258 229.592C21.5793 237.011 21.2917 244.581 21.8062 251.998C21.8402 252.487 21.986 252.936 22.2211 253.315C22.0016 253.399 21.9847 253.809 22.2579 253.867C22.4493 253.907 22.6403 253.948 22.8317 253.988C23.2293 254.289 23.7251 254.474 24.2958 254.492C24.6826 254.504 25.0692 254.521 25.4556 254.541C29.5333 255.394 33.6103 256.2 37.7413 256.809C42.7627 257.551 47.7989 258.155 52.8507 258.647C63.2313 259.656 73.5302 259.321 83.9246 258.777C94.3029 258.234 104.675 258.107 115.064 258.377C125.462 258.648 135.857 259.1 146.257 259.285C157.877 259.492 169.478 259.175 181.064 258.25C182.653 258.124 183.636 256.86 183.322 255.281C181.445 245.825 179.318 236.432 177.637 226.934Z" fill="white"/>
<path fill-rule="evenodd" clip-rule="evenodd" d="M77.6977 123.487C78.7722 123.44 79.8679 123.614 80.9398 123.72C81.0332 123.729 81.0687 123.873 80.9635 123.895C79.045 124.296 77.1476 124.845 75.2634 125.402L74.4567 125.64C72.332 126.269 70.2696 126.918 68.2127 127.756C64.1132 129.428 60.2198 131.684 56.6365 134.276C42.8382 144.256 32.8515 159.366 26.5494 175.01C24.8379 179.259 23.3878 183.613 22.2131 188.041C21.9275 189.118 21.6588 190.199 21.404 191.284C21.3292 191.602 21.0032 192.417 21.182 192.742C21.34 193.03 21.9543 193.208 22.2398 193.357L23.2034 193.857C25.083 194.826 28.214 196.419 28.5279 196.575L29.0176 196.816C37.0269 200.744 45.5848 204.075 54.5977 204.305L54.6683 203.535V203.535C55.0701 199.278 55.5974 194.999 56.7484 190.873C56.8103 190.651 57.0924 190.726 57.1181 190.923C57.7593 195.808 57.5544 200.73 57.3307 205.637C56.9346 214.328 56.4085 223.015 55.941 231.703C55.7069 236.049 55.4043 240.392 55.1312 244.735C54.8576 249.088 54.7691 253.545 54.1443 257.861C54.0051 258.823 52.8786 259.346 52.0255 259.245C51.0816 259.132 50.3555 258.301 50.351 257.347C50.3396 254.833 50.6555 252.288 50.831 249.78C50.9977 247.397 51.1767 245.015 51.36 242.633C52.0302 233.94 52.8011 225.257 53.5141 216.568C53.7668 213.486 54.0398 210.407 54.3208 207.328C44.7729 207.02 35.853 203.482 27.3436 199.349C27.2204 202.146 26.9229 204.939 26.635 207.725C25.8311 215.5 25.1223 223.271 24.5918 231.07C24.3239 235.009 24.1289 238.953 23.9591 242.897C23.8756 244.836 23.8076 246.775 23.7554 248.714C23.7379 249.361 23.7222 250.007 23.7082 250.654L23.6792 252.135C23.6554 253.073 23.5601 253.943 22.7707 254.626C21.9689 255.32 20.886 255.357 20.0924 254.626C19.0302 253.647 19.218 252.314 19.2495 251C19.2757 249.892 19.3072 248.783 19.3437 247.675C19.417 245.459 19.5106 243.243 19.6245 241.028C20.023 233.285 20.8191 225.573 21.8596 217.892L22.2658 214.927C23.0243 209.415 23.857 203.777 25.5527 198.468C24.8924 198.139 24.2341 197.808 23.5784 197.476C22.4151 196.887 21.2124 196.334 20.0817 195.684C19.1846 195.168 18.411 194.46 18.1612 193.416C17.8827 192.252 18.3086 190.98 18.5915 189.845L18.6161 189.745C18.8935 188.602 19.1922 187.464 19.5074 186.331C20.7856 181.737 22.3661 177.232 24.2158 172.837C27.9193 164.038 32.6996 155.679 38.5389 148.121C43.795 141.317 50.0041 135.148 57.2815 130.52C60.8392 128.258 64.6306 126.4 68.6403 125.087C70.5144 124.473 72.5536 123.939 74.5158 123.72C75.5743 123.601 76.6342 123.533 77.6977 123.487ZM96.7358 109.544C98.0127 108.173 100.55 109.592 99.9365 111.409C98.4944 115.682 96.1979 119.58 92.614 122.388C89.2451 125.028 85.2279 126.742 80.9015 126.376C80.8681 126.373 80.8392 126.365 80.8136 126.353L81.1865 126.858C84.1135 130.819 87.2014 134.726 90.9232 137.963C98.5062 144.559 108.831 148.117 118.801 145.586C126.645 143.595 133.555 137.39 135.588 129.482C135.296 129.613 134.95 129.658 134.57 129.575C132.944 129.222 131.334 127.511 130.285 126.284C129.151 124.957 128.265 123.524 127.615 121.904C126.427 118.94 126.045 115.123 127.668 112.252C127.869 111.898 128.33 112.096 128.37 112.442L128.432 112.981C128.744 115.672 129.134 118.276 130.403 120.729C131.023 121.929 131.767 123.101 132.673 124.106C133.158 124.644 133.683 125.158 134.25 125.609C134.803 126.049 135.472 126.367 135.968 126.871L136.058 126.968L136.061 126.95C136.186 125.885 136.933 125.415 137.664 125.445C138.371 125.473 139.202 125.785 139.523 125.934L139.554 125.948C144.487 128.317 149.031 131.405 153.307 134.831C162.15 141.917 168.776 151.179 171.986 162.087C173.561 167.44 174.465 172.956 175.42 178.446L176.007 181.81C176.898 186.879 177.893 192.047 179.904 196.762C180.424 197.981 180.023 199.125 178.748 199.605C177.155 200.204 175.557 200.784 173.956 201.356C174.742 204.73 175.221 208.221 175.81 211.611C177.062 218.818 178.596 225.979 179.912 233.176C180.584 236.856 181.191 240.549 181.863 244.229C182.186 246.001 182.524 247.771 182.852 249.543C183.029 250.498 183.189 251.456 183.358 252.413L183.387 252.572C183.484 253.076 183.606 253.598 183.467 254.103C183.309 254.679 182.859 255.086 182.458 255.499C182.128 255.839 181.651 255.841 181.246 255.656L181.113 255.594C180.39 255.256 179.824 254.919 179.568 254.103C179.406 253.587 179.347 253.005 179.241 252.473C179.038 251.454 178.845 250.433 178.663 249.409C178.298 247.36 177.943 245.31 177.595 243.258L177.271 241.337C176.157 234.716 175.1 228.054 174.566 221.362C174.328 218.394 174.077 215.428 173.823 212.461L173.633 210.236C173.392 207.42 173.098 204.533 173.056 201.678L172.099 202.018V202.018L167.428 203.67V203.67C166.269 204.08 164.795 204.919 163.548 204.766C162.938 204.691 162.473 204.499 162.114 204.15C162.544 210.223 163.126 216.285 163.902 222.316C164.608 227.804 165.391 233.285 166.316 238.74C166.773 241.442 167.244 244.141 167.755 246.833C168.01 248.179 168.274 249.523 168.546 250.866C168.681 251.536 168.842 252.206 168.948 252.882C169.069 253.655 168.856 254.131 168.424 254.768C168.069 255.29 167.359 255.559 166.784 255.198C166.022 254.72 165.625 254.305 165.401 253.434C165.197 252.643 165.073 251.817 164.916 251.016C164.625 249.537 164.344 248.056 164.072 246.574C163.504 243.473 162.981 240.364 162.514 237.246C160.867 226.263 159.822 215.187 159.294 204.093C159.034 198.62 158.953 193.142 159 187.663C159.023 184.854 159.115 182.038 159.313 179.237C159.515 176.401 159.933 173.622 160.306 170.813C160.32 170.715 160.459 170.709 160.465 170.813C160.642 173.962 160.919 177.107 161.055 180.264C161.184 183.277 161.241 186.294 161.344 189.307C161.48 193.268 161.668 197.232 161.916 201.192C162.367 200.7 163.045 200.416 163.724 200.527C164.708 200.32 165.767 199.804 166.704 199.49L170.24 198.309V198.309C172.098 197.688 173.957 197.071 175.822 196.473C174.154 190.861 173.012 185.165 172.037 179.387L171.602 176.788C170.741 171.672 169.812 166.554 168.253 161.6C166.613 156.392 164.159 151.55 160.904 147.165C157.696 142.844 153.792 139.039 149.773 135.48C146.332 132.433 142.651 129.682 139.142 126.719C139.178 126.915 139.186 127.131 139.154 127.369C138.408 132.832 135.559 137.92 131.588 141.704C123.612 149.307 111.805 150.884 101.596 147.319C91.7207 143.871 82.9897 135.704 79.905 125.598C79.8522 125.425 80.0837 125.356 80.1767 125.483C80.3478 125.718 80.5198 125.952 80.6919 126.187C80.6803 126.094 80.7287 125.992 80.8436 125.948C84.4428 124.558 87.9771 122.586 90.675 119.797C91.9899 118.437 93.1375 116.897 94.0434 115.235C94.4774 114.44 94.8672 113.616 95.1781 112.764L95.2572 112.544C95.6341 111.477 95.949 110.389 96.7358 109.544Z" fill="black"/>
<path fill-rule="evenodd" clip-rule="evenodd" d="M110.937 15.9933C111.53 15.3216 112.443 15.552 112.997 16.0831C113.357 16.1894 113.707 16.3475 114.037 16.5567C114.782 16.461 115.564 16.461 116.296 16.4878C116.473 16.3883 116.663 16.2997 116.87 16.2236C118.349 15.6828 119.659 15.9576 120.739 16.6816C121.259 16.1892 121.916 15.8802 122.755 15.9269C123.504 15.9688 124.038 16.3213 124.495 16.7856C124.951 16.1277 125.688 15.6583 126.607 15.593C127.891 15.5017 129.125 16.0167 130.148 16.8142C130.744 16.1302 131.557 15.7371 132.462 15.7333C133.058 15.6251 133.687 15.6678 134.255 15.8394C135.079 16.0886 135.804 16.5555 136.38 17.1614C137.293 16.2873 138.41 15.6583 139.698 15.75C141.365 15.8705 142.746 17.0965 143.389 18.6056C144.517 19.0576 145.558 19.7025 146.429 20.6218C146.475 20.6702 146.52 20.721 146.566 20.7719C147.035 20.945 147.477 21.1904 147.865 21.5135C149.097 22.5388 149.372 24.0225 148.964 25.4763C149.021 25.709 149.07 25.9458 149.114 26.1823C150.267 26.3577 151.315 27.0236 151.911 28.1079C152.727 29.5958 152.566 31.5569 151.683 32.9774C151.303 33.5884 150.821 34.1032 150.28 34.5534C150.892 35.9441 150.599 37.6036 149.612 38.7284C149.371 39.1163 149.076 39.4663 148.744 39.7831C149.111 41.2209 148.459 42.7044 147.157 43.4726L147.046 43.7513C147.027 43.7976 147.008 43.8437 146.989 43.8894C146.974 43.9486 146.957 44.0058 146.939 44.0635C146.908 44.5737 146.74 45.0744 146.407 45.5462C145.724 46.5129 144.878 47.1434 144.429 48.272L144.385 48.3905C144.192 48.9246 143.569 49.3014 143.038 49.1366C145.985 55.1899 147.529 61.9254 148.59 68.5263C149.119 71.8194 149.527 75.1238 149.858 78.441L150.183 81.7443C150.468 84.6804 150.722 87.6263 150.724 90.5722C150.728 97.2363 148.822 103.646 144.732 108.949C140.864 113.962 135.39 117.595 129.206 119.026C122.822 120.502 115.332 119.92 109.607 116.543C107.919 115.55 109.398 113.161 111.115 113.96C114.367 115.474 117.671 116.598 121.275 116.85C124.789 117.097 128.31 116.657 131.642 115.507C137.154 113.603 141.844 109.615 144.859 104.648C146.344 102.201 147.42 99.5443 147.992 96.7373C148.705 93.2389 148.597 89.6228 148.336 86.0797L148.317 85.8382C147.8 79.0114 147.117 72.1425 146.015 65.3837C145.04 59.4069 143.541 53.5513 141.595 47.8252C140.833 47.1539 139.98 46.5985 139.068 46.1766C132.386 45.8974 125.692 45.979 119.019 46.4402C113.328 46.8361 107.664 47.5058 102.043 48.482L101.441 48.5877C100.197 48.8094 98.8154 48.9362 97.6428 49.4373C96.6372 49.8685 96.2295 50.697 95.9759 51.7155C95.3379 54.2918 95.2407 57.1115 95.133 59.7533C95.0274 62.3358 95.2661 64.9399 95.059 67.5139C94.8837 69.6676 94.3323 71.872 92.7372 73.4298C91.9027 74.2454 90.8759 74.6914 89.9126 75.3106C89.2893 75.7103 89.0252 76.1222 89.1055 76.8619C89.2788 78.4809 90.5823 80.5204 89.1182 81.9069C88.8605 82.1499 88.4147 82.1816 88.1612 81.9069C87.5569 81.2498 86.7224 80.7487 86.0062 80.2182C85.7062 79.9986 85.9555 79.5717 86.2957 79.7236C86.7436 79.9246 87.1999 80.1613 87.6668 80.3685C86.6358 79.5188 85.1696 79.1022 83.9485 78.855C83.3337 78.7324 82.6872 78.6965 82.0471 78.7537C81.5738 78.9797 81.09 79.1891 80.6062 79.3939C79.9914 79.652 79.3703 79.8864 78.745 80.1085C76.5752 81.8773 75.54 84.754 75.9921 87.567C76.2393 89.1203 76.9555 90.8092 78.3055 91.7158C79.9048 92.7895 82.0471 92.3285 83.7752 93.1256C85.3936 93.8714 86.3781 95.3785 87.1154 96.9383L87.4228 97.5877C88.1071 99.0255 88.8106 100.425 89.7457 101.734C90.8274 103.249 92.152 104.61 93.5971 105.779C94.2981 106.345 95.0453 106.854 95.8176 107.317L96.0288 107.442C96.8105 107.901 97.3703 108.338 97.4231 109.308C97.44 109.647 97.2267 109.955 96.952 110.131C95.7689 110.881 94.5921 109.942 93.6076 109.287C92.545 108.581 91.5288 107.787 90.5886 106.92C88.8013 105.276 87.2548 103.323 86.0654 101.203C85.159 99.5886 84.6436 97.3166 83.2112 96.0654C82.3365 95.3022 81.1006 95.2961 80.0083 95.1564C78.9921 95.0256 78.0309 94.8142 77.1267 94.3133C73.4485 92.2696 72.409 87.3219 73.2816 83.4985C73.4295 82.8537 73.6365 82.226 73.8921 81.6215C72.5231 81.8498 70.9851 80.434 71.5407 79.005C71.583 78.8972 71.6316 78.796 71.6781 78.6922C70.7759 78.0983 70.064 77.1982 69.7259 76.0208C69.5527 75.4121 69.5274 74.797 69.6182 74.2031C69.1809 73.9096 68.8196 73.5057 68.5872 73.009C67.8605 72.673 67.2161 72.1702 66.8316 71.4516C66.2992 70.4601 66.3668 69.5471 66.7724 68.725C66.7154 68.6216 66.6605 68.5159 66.6076 68.4079C65.1182 67.4634 64.0788 65.8358 64.1971 64.0309C64.2351 63.4327 64.383 62.8938 64.6112 62.4079C64.5921 62.3466 64.5731 62.283 64.5562 62.2217C63.3097 61.5877 62.2788 60.5459 61.9112 59.1552C61.5436 57.7559 61.9767 56.361 62.8428 55.2873C61.5752 54.3597 60.8126 53.0641 61.2752 51.1047C61.4633 50.3081 61.8414 49.583 62.3527 48.9722C62.3506 48.9533 62.3464 48.9343 62.3421 48.9151L62.2235 48.8231C60.6587 47.5877 59.7591 46.0135 60.7196 44.0773C61.1506 43.2067 61.7654 42.5999 62.4879 42.2005L62.5238 42.0864V42.0864C62.0062 40.9768 61.8309 39.7446 62.1879 38.449C62.4795 37.3819 63.1703 36.5321 64.0534 35.968C63.9943 35.4901 64.0027 34.981 64.0978 34.4291C64.2562 33.4973 64.7189 32.6836 65.395 32.1066C65.4203 31.9838 65.452 31.8636 65.4879 31.7429C65.7161 31.0055 66.1428 30.2045 66.6372 29.6104C67.045 29.1179 67.5013 28.9383 68.059 28.9192C68.0252 28.4651 68.0485 28.0041 68.1414 27.537C68.4267 26.0958 69.3436 24.7408 70.702 24.1258C71.2597 23.8743 71.8471 23.8006 72.4133 23.8616C72.895 22.8472 73.8351 22.1119 74.9907 21.9534C75.4407 21.8899 75.859 21.894 76.2436 21.9512C76.4612 21.8496 76.6872 21.7589 76.9238 21.6763C77.0802 21.6213 77.2386 21.5706 77.3971 21.5201C77.9316 20.8564 78.6351 20.3257 79.4569 20.0068C80.4055 19.637 81.371 19.6748 82.2267 19.9855L82.4992 19.9284V19.9284C82.9259 19.1887 83.6062 18.6159 84.652 18.356C85.8393 18.0622 87.0583 18.4722 87.9921 19.2185C87.9964 19.2185 88.0006 19.2185 88.0069 19.2162C88.495 18.1235 89.3295 17.3626 90.7302 17.4154C91.6027 17.4493 92.3907 17.8827 92.9992 18.4999C93.3372 18.4574 93.6752 18.4194 94.0154 18.3815C94.3745 17.9607 94.7738 17.5678 95.2154 17.2149C95.9379 16.6356 96.8781 16.6823 97.4105 17.4979C97.5266 17.6754 97.6344 17.8551 97.7421 18.0347L98.2302 18.0009V18.0009C98.8048 17.2252 99.5886 16.7011 100.662 16.659C101.646 16.6187 102.348 17.1007 102.882 17.7747C103.317 17.7642 103.755 17.7559 104.192 17.7494C104.701 17.1597 105.301 16.6398 105.986 16.2086C106.51 15.8789 107.283 15.9912 107.708 16.4308C107.995 16.7296 108.262 17.0416 108.51 17.3645C109.15 16.6468 110.014 16.174 110.937 15.9933ZM79.8436 83.1075C80.8302 82.5453 82.1569 83.154 83.1119 83.6316C84.2759 84.2128 85.4316 85.0899 86.1436 86.189C87.1133 87.6853 84.8337 88.8942 83.8133 87.5522C83.1858 86.7258 82.6851 85.8931 81.9245 85.1702C81.2295 84.5066 80.2217 84.0628 79.8224 83.1878C79.8076 83.1582 79.8119 83.1244 79.8436 83.1075ZM80.5366 46.7867L80.5551 46.734C80.8357 45.9661 79.6112 45.6352 79.3329 46.3966C78.9112 47.5508 79.3974 48.8056 80.5369 49.304C80.8528 49.4422 81.2136 49.3942 81.404 49.0766C81.5639 48.8092 81.4898 48.3459 81.1767 48.2092C80.5355 47.9287 80.3207 47.4336 80.5366 46.7867V46.7867ZM69.9877 44.6397C70.6006 44.0986 69.7012 43.2044 69.0913 43.7431C68.5221 44.2457 68.1 44.9284 68.2097 45.7136C68.3214 46.5137 68.9246 47.0787 69.5848 47.4779C70.2845 47.9012 70.9224 46.8052 70.2245 46.3829L70.1461 46.3349C69.8532 46.1529 69.5104 45.9027 69.4608 45.5447C69.4082 45.1643 69.73 44.8673 69.9877 44.6397ZM73.4667 35.0926L73.5102 35.0607C74.1685 34.5906 73.5362 33.4903 72.8702 33.9657C72.2597 34.4017 71.77 34.9681 71.7184 35.7492C71.6683 36.5084 72.0545 37.1666 72.5595 37.7006C73.1212 38.2947 74.0166 37.3969 73.4559 36.8041C72.9095 36.2263 72.8028 35.5958 73.4667 35.0926V35.0926Z" fill="black"/>
<path fill-rule="evenodd" clip-rule="evenodd" d="M126.152 103.274C124.732 102.695 123.465 101.728 122.538 100.493C122.216 100.063 122.133 99.6099 122.2 99.1953C122.276 98.729 122.552 98.3064 122.928 98.0229C123.305 97.7386 123.777 97.5984 124.233 97.6698C124.63 97.732 125.024 97.9491 125.337 98.3994L125.402 98.4894C125.953 99.2349 126.67 99.8465 127.488 100.241C128.276 100.621 129.158 100.798 130.07 100.695C131.808 100.499 133.005 99.5585 134.278 98.2821C134.436 98.1209 134.594 97.9547 134.752 97.7858C134.852 97.6327 134.991 97.5343 135.146 97.4827C135.317 97.4254 135.511 97.4286 135.689 97.4906C135.86 97.5504 136.013 97.6637 136.116 97.8145C136.213 97.9578 136.269 98.1349 136.251 98.3386C136.134 99.6614 135.443 100.842 134.461 101.769C133.37 102.799 131.924 103.511 130.563 103.761C129.064 104.036 127.536 103.839 126.152 103.274V103.274ZM131.271 82.8662C132.866 83.8364 135.297 86.0985 133.581 88.5035C131.56 90.6241 128.652 88.1927 127.219 87.093C125.89 86.2408 124.396 88.4327 125.629 89.4278C135.987 97.0988 140.19 83.1199 132.078 81.7256C131.184 81.572 130.853 82.5661 131.271 82.8662ZM112.711 73.9429C112.887 71.7541 116.219 71.257 116.551 73.423C116.847 75.3632 116.498 77.1455 115.624 78.8923C114.79 80.5611 112.692 79.7825 112.533 78.2629C112.32 76.2259 112.601 75.3044 112.711 73.9429ZM138.076 72.9739C138.541 72.3652 139.212 71.9497 140.015 72.1845C142.526 72.9185 141.786 76.4846 140.904 78.2204C140.425 79.163 138.876 79.4021 138.176 78.5721C137.036 77.2186 136.489 74.5157 137.94 73.1825C137.979 73.1136 138.023 73.044 138.076 72.9739ZM115.589 64.3654L115.986 64.2959C117.213 64.0836 118.738 63.8796 119.606 64.8665C120.067 65.3898 120.225 66.3624 119.606 66.8633C118.518 67.7446 117.314 67.4031 116.01 67.4777C114.935 67.5394 113.902 67.7174 112.867 68.0135C110.595 68.6629 108.744 69.8486 106.804 71.1505C106.55 71.3213 106.29 70.9956 106.411 70.7574C107.531 68.563 109.701 66.7604 111.875 65.6616C113.036 65.0751 114.305 64.5885 115.589 64.3654ZM135.787 63.3823L136.091 63.4445C139.395 64.1353 143.687 65.5153 145.251 68.7615C145.311 69.2205 145.248 69.3189 145.197 69.3832L145.18 69.4046C145.137 69.4595 145.104 69.5351 144.905 69.5976C144.85 69.5844 144.794 69.5705 144.737 69.5557C144.02 69.3677 143.453 69.1087 142.904 68.84L142.308 68.5465C141.617 68.2076 140.92 67.881 140.181 67.6399C138.605 67.1255 136.983 66.7631 135.337 66.5696C134.98 66.5277 134.636 66.4072 134.365 66.2006C134.108 66.0046 133.911 65.7332 133.821 65.3724C133.705 64.9056 133.739 64.5521 133.989 64.1309C134.177 63.8146 134.447 63.5953 134.756 63.4694C135.071 63.3411 135.43 63.3108 135.787 63.3823Z" fill="black"/>
<path fill-rule="evenodd" clip-rule="evenodd" d="M149.773 91.3953C149.491 90.5537 148.042 90.627 148.131 91.6176C148.233 92.7494 147.846 94.0116 146.762 94.5611C145.627 95.1364 144.35 94.6192 143.658 93.6322C143.056 92.7743 142.641 91.8412 141.884 91.093C141.179 90.3973 140.323 89.8606 139.386 89.5421C138.656 89.2942 137.899 89.2283 137.165 89.3097C135.336 88.896 133.216 89.8368 132.076 91.2638C132.002 91.3557 131.934 91.4502 131.868 91.5455C131.755 91.3917 131.637 91.2393 131.511 91.089C131.188 90.7018 130.787 90.6188 130.425 90.7242C128.363 89.19 125.473 88.9867 123.131 90.3713C121.254 91.4806 119.702 93.1157 117.395 93.2429C115.567 93.3437 113.576 92.3005 113.447 90.2912C113.38 89.242 111.951 88.3675 111.149 89.3388C109.464 91.3813 109.126 94.0944 110.059 96.564C111.043 99.1698 113.048 101.005 115.587 102.085C118.328 103.251 121.54 103.656 124.506 103.564C127.463 103.472 130.151 102.334 131.933 99.915C132.145 99.6263 132.332 99.3329 132.496 99.0362C134.227 101.24 136.939 102.167 139.701 102.233C142.592 102.302 146.008 101.795 148.052 99.5496C150.021 97.3853 150.7 94.1669 149.773 91.3953" fill="black"/>
</g>
<defs>
<clipPath id="clip0_64_49">
<rect width="207" height="207" fill="white"/>
</clipPath>
</defs>
</svg>
